<svg id="BACKGROUND" xmlns="http://www.w3.org/2000/svg" xmlns:xlink="http://www.w3.org/1999/xlink" viewBox="0 0 462 75.86"><defs><style>.cls-1{fill:url(#Безымянный_градиент_21);}.cls-2{fill:#fff;}.cls-3{fill:#e900cc;opacity:0.17;}</style><linearGradient id="Безымянный_градиент_21" x1="385.58" y1="37.93" x2="462" y2="37.93" gradientUnits="userSpaceOnUse"><stop offset="0" stop-color="#9e00aa"/><stop offset="1" stop-color="#fff"/></linearGradient></defs><title>лллл8</title><ellipse class="cls-1" cx="423.79" cy="37.93" rx="38.21" ry="37.93"/><ellipse cx="424.19" cy="37.93" rx="32.3" ry="33"/><path class="cls-2" d="M441.89,189.76v4.89a.35.35,0,0,0,.7,0v-4.89A.35.35,0,0,0,441.89,189.76Z" transform="translate(-18.08 -180.71)"/><path class="cls-2" d="M442.22,248v-4.89a.35.35,0,0,0-.7,0V248A.35.35,0,0,0,442.22,248Z" transform="translate(-18.08 -180.71)"/><path class="cls-2" d="M413.62,219.74h4.89a.35.35,0,0,0,0-.69h-4.89A.35.35,0,0,0,413.62,219.74Z" transform="translate(-18.08 -180.71)"/><path class="cls-2" d="M453.85,196.88l1.2-2.86a.35.35,0,0,0-.64-.27l-1.2,2.86A.35.35,0,0,0,453.85,196.88Z" transform="translate(-18.08 -180.71)"/><path class="cls-2" d="M463.54,206.42l2.53-1.8a.35.35,0,0,0-.41-.57l-2.52,1.81A.34.34,0,0,0,463.54,206.42Z" transform="translate(-18.08 -180.71)"/><path class="cls-2" d="M462.51,232.55c.91.49,1.82,1,2.74,1.46a.35.35,0,0,0,.33-.61l-2.74-1.46A.35.35,0,0,0,462.51,232.55Z" transform="translate(-18.08 -180.71)"/><path class="cls-2" d="M452.1,241.3l1.55,2.68a.35.35,0,0,0,.61-.35L452.7,241A.35.35,0,0,0,452.1,241.3Z" transform="translate(-18.08 -180.71)"/><path class="cls-2" d="M430,240.27l-1.23,2.84a.35.35,0,0,0,.64.28l1.23-2.85A.35.35,0,0,0,430,240.27Z" transform="translate(-18.08 -180.71)"/><path class="cls-2" d="M420.41,230.61l-2.55,1.77a.35.35,0,0,0,.39.57l2.55-1.77A.35.35,0,0,0,420.41,230.61Z" transform="translate(-18.08 -180.71)"/><path class="cls-2" d="M420.91,207.17,418,206a.35.35,0,0,0-.27.64l2.87,1.19A.35.35,0,0,0,420.91,207.17Z" transform="translate(-18.08 -180.71)"/><path class="cls-2" d="M430.42,197.46l-1.81-2.52c-.26-.36-.83,0-.57.4l1.82,2.52A.34.34,0,0,0,430.42,197.46Z" transform="translate(-18.08 -180.71)"/><path class="cls-3" d="M444.69,215.79l25.82-13.19s5.24,10.07,4,17.62H444.69Z" transform="translate(-18.08 -180.71)"/><circle class="cls-2" cx="442.59" cy="219.11" r="4.6" transform="translate(109.57 418.81) rotate(-76.72)"/><polygon class="cls-2" points="425.37 29.89 424.18 16.09 424.04 16.09 424.02 16.09 423.87 16.09 422.68 29.89 423.53 31.39 424.02 32.82 423.99 32.82 424.52 31.39 425.37 29.89"/><polygon class="cls-2" points="432.45 39.33 442.03 38.14 442.03 37.99 442.03 37.97 442.03 37.83 432.45 36.64 431.41 37.49 430.42 37.97 430.42 37.95 431.41 38.48 432.45 39.33"/><path class="cls-2" d="M18.08,193.87l10.56.66,18.14,46.09q3.77-5,6.19-8.69a76.83,76.83,0,0,0,4.5-7.94,38.58,38.58,0,0,0,3-8.4,39.69,39.69,0,0,0,1-8.77,25.38,25.38,0,0,0-.37-4.43,19.74,19.74,0,0,0-.89-3.51,24.2,24.2,0,0,0-1-2.41,8,8,0,0,0-.89-1.49l-.37-.5H69.44l.72,1.59c.42,1,.74,1.71,1,2.27s.46,1.38.78,2.44a20.57,20.57,0,0,1,.7,3.34,29.29,29.29,0,0,1,.23,3.73,32.84,32.84,0,0,1-1.34,9.27A35.84,35.84,0,0,1,68,225.31a62.31,62.31,0,0,1-4.77,6.91A56.46,56.46,0,0,1,58,238q-2.61,2.47-4.77,4.39t-3.5,3.18c-.9.84-1.34,1.42-1.34,1.75H37.61Z" transform="translate(-18.08 -180.71)"/><path class="cls-2" d="M77.89,221.8a29.4,29.4,0,0,1,1.86-10.27,31,31,0,0,1,5.12-9,24.44,24.44,0,0,1,8.19-6.42,23.68,23.68,0,0,1,10.62-2.43,24,24,0,0,1,10.46,2.27,17.71,17.71,0,0,1,7.37,6.19l-4.25,3a15.57,15.57,0,0,0-5-4.19,13.28,13.28,0,0,0-6.48-1.79,15.42,15.42,0,0,0-6.63,1.34A12.71,12.71,0,0,0,94.54,204a17.83,17.83,0,0,0-2.86,5.24,28.75,28.75,0,0,0-1.53,6.21,51,51,0,0,0-.41,6.76,30.59,30.59,0,0,0,1.23,9.1,16.13,16.13,0,0,0,3.41,6.27,14.2,14.2,0,0,0,4.87,3.49,14.71,14.71,0,0,0,5.84,1.16,17.91,17.91,0,0,0,9-2.15,15.34,15.34,0,0,0,5.61-5.12l4.21,3.06q-5.66,9.69-19.43,9.69a37.58,37.58,0,0,1-7.45-.72,27.53,27.53,0,0,1-7.16-2.56,21.29,21.29,0,0,1-6.17-4.68,21.84,21.84,0,0,1-4.21-7.45A31.54,31.54,0,0,1,77.89,221.8Z" transform="translate(-18.08 -180.71)"/><path class="cls-2" d="M129.43,246.89V194.4h11v19.24a3.66,3.66,0,0,0,3.66,3.66h21.67V194.48h11V221.1a52.23,52.23,0,0,1-.48,7.2,41,41,0,0,1-1.21,6,49.68,49.68,0,0,1-1.65,4.71,23.08,23.08,0,0,1-1.84,3.61c-.62.95-1.18,1.76-1.67,2.45a13.16,13.16,0,0,1-1.2,1.49l-.49.45H161a5.61,5.61,0,0,0,.51-.74,20.55,20.55,0,0,0,1.14-2.56,33.32,33.32,0,0,0,1.44-4.68,63.84,63.84,0,0,0,1.14-7.29,93.56,93.56,0,0,0,.51-10.15H140.45v25.34Z" transform="translate(-18.08 -180.71)"/><path class="cls-2" d="M182.66,206.57a11.16,11.16,0,0,1,1.42-5.63,11,11,0,0,1,3.74-3.94,19.07,19.07,0,0,1,5-2.19,20.7,20.7,0,0,1,5.49-.74v4.38a7.41,7.41,0,0,0-3,3.13,10.42,10.42,0,0,0-1.24,5.16q0,10.56,17.33,20.55l11-32.81h11l-17.74,52.41H205.07l4.66-13.08q-13.22-6.1-20.14-12.77T182.66,206.57Z" transform="translate(-18.08 -180.71)"/><path class="cls-2" d="M289.57,239.71l2.64-4.75c.22.2.54.46,1,.79a30.53,30.53,0,0,0,2.72,1.75,30.92,30.92,0,0,0,10.18,3.94,32.83,32.83,0,0,0,7.11.79c3.55,0,6.28-.66,8.19-2a6,6,0,0,0,2.87-5.14,6.31,6.31,0,0,0-2.68-5.47q-2.69-1.92-11.84-5.84c-1.54-.66-2.89-1.26-4-1.81s-2.43-1.22-3.81-2a24.27,24.27,0,0,1-3.55-2.4,23.34,23.34,0,0,1-2.75-2.7,10.76,10.76,0,0,1-1.94-3.26,10.55,10.55,0,0,1-.66-3.71,12.29,12.29,0,0,1,5.22-10.4q5.22-3.89,14.67-3.88a31.93,31.93,0,0,1,19.77,6.77L330,205.21a37.51,37.51,0,0,0-8.24-4.31,26.2,26.2,0,0,0-9.42-1.75,9,9,0,0,0-5.53,1.48,5.18,5.18,0,0,0-2,4.42c0,1.76.92,3.41,2.78,4.95s5.18,3.19,10,4.95q9.9,3.72,14.21,7.47a12.06,12.06,0,0,1,4.31,9.53,13.36,13.36,0,0,1-1.38,6,15.28,15.28,0,0,1-4,5,19.25,19.25,0,0,1-7,3.48,34.16,34.16,0,0,1-9.77,1.28,42.68,42.68,0,0,1-8.44-.82,36,36,0,0,1-6.87-2,51.27,51.27,0,0,1-4.89-2.36,20.68,20.68,0,0,1-3.12-2Z" transform="translate(-18.08 -180.71)"/><path class="cls-2" d="M342.39,246.89V194.48H355.1L380,241.4q2.52-7.22,2.52-18a57.39,57.39,0,0,0-2.15-15.76,56.31,56.31,0,0,0-5.45-13.17h11.85q6.3,11.93,6.31,20.88a46.69,46.69,0,0,1-1,9.54,48.31,48.31,0,0,1-2.42,8.25c-.94,2.34-1.9,4.45-2.86,6.35l-2.44,4.79a7.64,7.64,0,0,0-1,2.6h-7.18L353.4,204.22v42.67Z" transform="translate(-18.08 -180.71)"/><path class="cls-2" d="M230.85,239.17a26.59,26.59,0,0,1,2.36-9.67,79.35,79.35,0,0,1,5.67-11.23q3.31-5.46,7.14-10.83t6.54-8.77q2.33-2.91,3.66-4.35a1.4,1.4,0,0,1,1-.45h8.89a1.42,1.42,0,0,1,1.36,1q3.12,10.88,8.95,25.6,6.1,15.44,11.43,26.2h-11a1.39,1.39,0,0,1-1.24-.74q-6.53-12.45-17.31-43.18a1.41,1.41,0,0,0-2.53-.26l0,0q-1,1.65-3.53,6.23t-4.48,8.56a81.28,81.28,0,0,0-3.52,8.46,22.8,22.8,0,0,0-1.59,7.12c0,2.89.73,5.65,3.81,5.65,2.64,0,3.71.35,9-3.54,11.58-8.58,4.66-23.51,7.26-15.55.27.81.71,2.5.93,3.46l2.82,12c-2.42,1.53-4.31,2.84-5.94,3.9s-3.7,2.31-6.23,3.76a38.61,38.61,0,0,1-7.45,3.32,22.69,22.69,0,0,1-6.82,1.16,10.63,10.63,0,0,1-6.75-1.94C231.67,243.86,230.85,241.87,230.85,239.17Z" transform="translate(-18.08 -180.71)"/><path class="cls-2" d="M243.71,237.23s2.51,3,9.59-.69,1.79,2.88,1.79,2.88l-7.26,2.64-5.28-1.32Z" transform="translate(-18.08 -180.71)"/></svg>